{
	"asset":{
		"generator":"Khronos glTF Blender I/O v3.5.30",
		"version":"2.0"
	},
	"scene":0,
	"scenes":[
		{
			"name":"Scene",
			"nodes":[
				0,
				1,
				2,
				3,
				4
			]
		}
	],
	"nodes":[
		{
			"mesh":0,
			"name":"Cylinder",
			"rotation":[
				0,
				0,
				-0.7071068286895752,
				0.7071068286895752
			],
			"scale":[
				1,
				0.16412712633609772,
				1
			],
			"translation":[
				-0.014766956679522991,
				0,
				0
			]
		},
		{
			"mesh":1,
			"name":"Text",
			"rotation":[
				0.5,
				0.5,
				-0.5,
				0.4999999701976776
			],
			"scale":[
				1.3610711097717285,
				0.6758471131324768,
				1.3610711097717285
			],
			"translation":[
				0.05591075122356415,
				-0.46696871519088745,
				0.5432949066162109
			]
		},
		{
			"mesh":2,
			"name":"Text.003",
			"rotation":[
				0.5,
				0.5,
				-0.5,
				0.4999999701976776
			],
			"scale":[
				1.3610711097717285,
				0.6758471131324768,
				1.3610711097717285
			],
			"translation":[
				0.05591075122356415,
				-0.46696871519088745,
				0.5432949066162109
			]
		},
		{
			"mesh":3,
			"name":"Text.004",
			"rotation":[
				-0.5000000596046448,
				0.5000001192092896,
				0.4999999701976776,
				0.5000000596046448
			],
			"scale":[
				-1.3610711097717285,
				-0.6756094694137573,
				-1.3610711097717285
			],
			"translation":[
				-0.08638665825128555,
				-0.46696871519088745,
				-0.5554463863372803
			]
		},
		{
			"mesh":4,
			"name":"Text.005",
			"rotation":[
				-0.5000000596046448,
				0.5000001192092896,
				0.4999999701976776,
				0.5000000596046448
			],
			"scale":[
				-1.3610711097717285,
				-0.6756094694137573,
				-1.3610711097717285
			],
			"translation":[
				-0.08638665825128555,
				-0.46696871519088745,
				-0.5554463863372803
			]
		}
	],
	"materials":[
		{
			"doubleSided":true,
			"name":"Material.011",
			"pbrMetallicRoughness":{
				"baseColorFactor":[
					0.6583746671676636,
					0.42869019508361816,
					0.03820450231432915,
					1
				],
				"metallicFactor":0.8492462635040283,
				"roughnessFactor":0.12999999523162842
			}
		}
	],
	"meshes":[
		{
			"name":"Cylinder.003",
			"primitives":[
				{
					"attributes":{
						"POSITION":0,
						"TEXCOORD_0":1,
						"TEXCOORD_1":2,
						"NORMAL":3
					},
					"indices":4,
					"material":0
				}
			]
		},
		{
			"name":"Text",
			"primitives":[
				{
					"attributes":{
						"POSITION":5,
						"TEXCOORD_0":6,
						"NORMAL":7
					},
					"indices":8,
					"material":0
				}
			]
		},
		{
			"name":"Text.004",
			"primitives":[
				{
					"attributes":{
						"POSITION":9,
						"TEXCOORD_0":10,
						"NORMAL":11
					},
					"indices":12,
					"material":0
				}
			]
		},
		{
			"name":"Text.005",
			"primitives":[
				{
					"attributes":{
						"POSITION":13,
						"TEXCOORD_0":14,
						"NORMAL":15
					},
					"indices":12,
					"material":0
				}
			]
		},
		{
			"name":"Text.006",
			"primitives":[
				{
					"attributes":{
						"POSITION":16,
						"TEXCOORD_0":17,
						"NORMAL":18
					},
					"indices":8,
					"material":0
				}
			]
		}
	],
	"accessors":[
		{
			"bufferView":0,
			"componentType":5126,
			"count":3551,
			"max":[
				1,
				1,
				1
			],
			"min":[
				-1,
				-1,
				-1
			],
			"type":"VEC3"
		},
		{
			"bufferView":1,
			"componentType":5126,
			"count":3551,
			"type":"VEC2"
		},
		{
			"bufferView":2,
			"componentType":5126,
			"count":3551,
			"type":"VEC2"
		},
		{
			"bufferView":3,
			"componentType":5126,
			"count":3551,
			"type":"VEC3"
		},
		{
			"bufferView":4,
			"componentType":5123,
			"count":11508,
			"type":"SCALAR"
		},
		{
			"bufferView":5,
			"componentType":5126,
			"count":9801,
			"max":[
				0.7429999709129333,
				0.10999999940395355,
				0.08905089646577835
			],
			"min":[
				-0.03216191381216049,
				-0.10999999940395355,
				-0.771047830581665
			],
			"type":"VEC3"
		},
		{
			"bufferView":6,
			"componentType":5126,
			"count":9801,
			"type":"VEC2"
		},
		{
			"bufferView":7,
			"componentType":5126,
			"count":9801,
			"type":"VEC3"
		},
		{
			"bufferView":8,
			"componentType":5123,
			"count":57624,
			"type":"SCALAR"
		},
		{
			"bufferView":9,
			"componentType":5126,
			"count":5146,
			"max":[
				0.703000009059906,
				0.10999999940395355,
				0.04902544990181923
			],
			"min":[
				0.007919039577245712,
				-0.10999999940395355,
				-0.731023907661438
			],
			"type":"VEC3"
		},
		{
			"bufferView":10,
			"componentType":5126,
			"count":5146,
			"type":"VEC2"
		},
		{
			"bufferView":11,
			"componentType":5126,
			"count":5146,
			"type":"VEC3"
		},
		{
			"bufferView":12,
			"componentType":5123,
			"count":29388,
			"type":"SCALAR"
		},
		{
			"bufferView":13,
			"componentType":5126,
			"count":5146,
			"max":[
				0.703000009059906,
				0.10999999940395355,
				0.04902544990181923
			],
			"min":[
				0.007919039577245712,
				-0.10999999940395355,
				-0.731023907661438
			],
			"type":"VEC3"
		},
		{
			"bufferView":14,
			"componentType":5126,
			"count":5146,
			"type":"VEC2"
		},
		{
			"bufferView":15,
			"componentType":5126,
			"count":5146,
			"type":"VEC3"
		},
		{
			"bufferView":16,
			"componentType":5126,
			"count":9801,
			"max":[
				0.7429999709129333,
				0.10999999940395355,
				0.08905089646577835
			],
			"min":[
				-0.03216191381216049,
				-0.10999999940395355,
				-0.771047830581665
			],
			"type":"VEC3"
		},
		{
			"bufferView":17,
			"componentType":5126,
			"count":9801,
			"type":"VEC2"
		},
		{
			"bufferView":18,
			"componentType":5126,
			"count":9801,
			"type":"VEC3"
		}
	],
	"bufferViews":[
		{
			"buffer":0,
			"byteLength":42612,
			"byteOffset":0,
			"target":34962
		},
		{
			"buffer":0,
			"byteLength":28408,
			"byteOffset":42612,
			"target":34962
		},
		{
			"buffer":0,
			"byteLength":28408,
			"byteOffset":71020,
			"target":34962
		},
		{
			"buffer":0,
			"byteLength":42612,
			"byteOffset":99428,
			"target":34962
		},
		{
			"buffer":0,
			"byteLength":23016,
			"byteOffset":142040,
			"target":34963
		},
		{
			"buffer":0,
			"byteLength":117612,
			"byteOffset":165056,
			"target":34962
		},
		{
			"buffer":0,
			"byteLength":78408,
			"byteOffset":282668,
			"target":34962
		},
		{
			"buffer":0,
			"byteLength":117612,
			"byteOffset":361076,
			"target":34962
		},
		{
			"buffer":0,
			"byteLength":115248,
			"byteOffset":478688,
			"target":34963
		},
		{
			"buffer":0,
			"byteLength":61752,
			"byteOffset":593936,
			"target":34962
		},
		{
			"buffer":0,
			"byteLength":41168,
			"byteOffset":655688,
			"target":34962
		},
		{
			"buffer":0,
			"byteLength":61752,
			"byteOffset":696856,
			"target":34962
		},
		{
			"buffer":0,
			"byteLength":58776,
			"byteOffset":758608,
			"target":34963
		},
		{
			"buffer":0,
			"byteLength":61752,
			"byteOffset":817384,
			"target":34962
		},
		{
			"buffer":0,
			"byteLength":41168,
			"byteOffset":879136,
			"target":34962
		},
		{
			"buffer":0,
			"byteLength":61752,
			"byteOffset":920304,
			"target":34962
		},
		{
			"buffer":0,
			"byteLength":117612,
			"byteOffset":982056,
			"target":34962
		},
		{
			"buffer":0,
			"byteLength":78408,
			"byteOffset":1099668,
			"target":34962
		},
		{
			"buffer":0,
			"byteLength":117612,
			"byteOffset":1178076,
			"target":34962
		}
	],
	"buffers":[
		{
			"byteLength":1295688,
			"uri":"coin-17.bin"
		}
	]
}
